<mxfile host="app.diagrams.net" modified="2022-09-07T07:58:47.217Z" agent="5.0 (Windows NT 10.0; Win64; x64) AppleWebKit/537.36 (KHTML, like Gecko) Chrome/105.0.0.0 Safari/537.36" etag="o-k58bHa-oWip_ZjMemi" version="20.2.8" type="github">
  <diagram id="uWto1UtUF5qCr1qyiVRA" name="第 1 页">
    <mxGraphModel dx="1824" dy="2151" grid="1" gridSize="10" guides="1" tooltips="1" connect="1" arrows="1" fold="1" page="1" pageScale="1" pageWidth="827" pageHeight="1169" math="0" shadow="0">
      <root>
        <mxCell id="0" />
        <mxCell id="1" parent="0" />
        <mxCell id="sLW77bm_CNe7X0AWjwWJ-2" value="" style="rounded=1;whiteSpace=wrap;html=1;sketch=1;glass=0;shadow=0;fontFamily=Comic Sans MS;" vertex="1" parent="1">
          <mxGeometry x="300" y="-40" width="930" height="550" as="geometry" />
        </mxCell>
        <mxCell id="sLW77bm_CNe7X0AWjwWJ-34" style="edgeStyle=orthogonalEdgeStyle;rounded=0;sketch=1;orthogonalLoop=1;jettySize=auto;html=1;exitX=0.5;exitY=0;exitDx=0;exitDy=0;entryX=1;entryY=0.75;entryDx=0;entryDy=0;fontFamily=Comic Sans MS;" edge="1" parent="1" source="sLW77bm_CNe7X0AWjwWJ-3" target="sLW77bm_CNe7X0AWjwWJ-8">
          <mxGeometry relative="1" as="geometry" />
        </mxCell>
        <mxCell id="sLW77bm_CNe7X0AWjwWJ-35" value="返回html" style="edgeLabel;html=1;align=center;verticalAlign=middle;resizable=0;points=[];fontFamily=Comic Sans MS;" vertex="1" connectable="0" parent="sLW77bm_CNe7X0AWjwWJ-34">
          <mxGeometry x="0.3826" y="-1" relative="1" as="geometry">
            <mxPoint as="offset" />
          </mxGeometry>
        </mxCell>
        <mxCell id="sLW77bm_CNe7X0AWjwWJ-3" value="" style="shape=ext;double=1;rounded=1;whiteSpace=wrap;html=1;fillColor=#f5f5f5;fontColor=#333333;strokeColor=#666666;fontFamily=Comic Sans MS;sketch=1;" vertex="1" parent="1">
          <mxGeometry x="605" y="110" width="375" height="300" as="geometry" />
        </mxCell>
        <mxCell id="sLW77bm_CNe7X0AWjwWJ-16" style="edgeStyle=orthogonalEdgeStyle;rounded=0;orthogonalLoop=1;jettySize=auto;html=1;exitX=1;exitY=0.75;exitDx=0;exitDy=0;entryX=0;entryY=0.75;entryDx=0;entryDy=0;fontFamily=Comic Sans MS;sketch=1;" edge="1" parent="1" source="sLW77bm_CNe7X0AWjwWJ-4" target="sLW77bm_CNe7X0AWjwWJ-5">
          <mxGeometry relative="1" as="geometry" />
        </mxCell>
        <mxCell id="sLW77bm_CNe7X0AWjwWJ-18" value="返回cookie" style="edgeLabel;html=1;align=center;verticalAlign=middle;resizable=0;points=[];fontFamily=Comic Sans MS;" vertex="1" connectable="0" parent="sLW77bm_CNe7X0AWjwWJ-16">
          <mxGeometry x="-0.13" y="1" relative="1" as="geometry">
            <mxPoint as="offset" />
          </mxGeometry>
        </mxCell>
        <mxCell id="sLW77bm_CNe7X0AWjwWJ-4" value="coverity服务" style="rounded=1;whiteSpace=wrap;html=1;fillColor=#e1d5e7;strokeColor=#9673a6;fontFamily=Comic Sans MS;sketch=1;" vertex="1" parent="1">
          <mxGeometry x="626" y="191" width="120" height="60" as="geometry" />
        </mxCell>
        <mxCell id="sLW77bm_CNe7X0AWjwWJ-15" style="edgeStyle=orthogonalEdgeStyle;rounded=0;orthogonalLoop=1;jettySize=auto;html=1;exitX=0;exitY=0.25;exitDx=0;exitDy=0;entryX=1;entryY=0.25;entryDx=0;entryDy=0;fontFamily=Comic Sans MS;sketch=1;" edge="1" parent="1" source="sLW77bm_CNe7X0AWjwWJ-5" target="sLW77bm_CNe7X0AWjwWJ-4">
          <mxGeometry relative="1" as="geometry" />
        </mxCell>
        <mxCell id="sLW77bm_CNe7X0AWjwWJ-17" value="登录" style="edgeLabel;html=1;align=center;verticalAlign=middle;resizable=0;points=[];fontFamily=Comic Sans MS;" vertex="1" connectable="0" parent="sLW77bm_CNe7X0AWjwWJ-15">
          <mxGeometry x="0.2844" relative="1" as="geometry">
            <mxPoint x="5" as="offset" />
          </mxGeometry>
        </mxCell>
        <mxCell id="sLW77bm_CNe7X0AWjwWJ-19" style="edgeStyle=orthogonalEdgeStyle;rounded=0;orthogonalLoop=1;jettySize=auto;html=1;exitX=0.5;exitY=1;exitDx=0;exitDy=0;entryX=0.75;entryY=0;entryDx=0;entryDy=0;fontFamily=Comic Sans MS;sketch=1;" edge="1" parent="1" source="sLW77bm_CNe7X0AWjwWJ-5" target="sLW77bm_CNe7X0AWjwWJ-7">
          <mxGeometry relative="1" as="geometry" />
        </mxCell>
        <mxCell id="sLW77bm_CNe7X0AWjwWJ-20" value="回写cookie" style="edgeLabel;html=1;align=center;verticalAlign=middle;resizable=0;points=[];fontFamily=Comic Sans MS;" vertex="1" connectable="0" parent="sLW77bm_CNe7X0AWjwWJ-19">
          <mxGeometry x="-0.4473" relative="1" as="geometry">
            <mxPoint as="offset" />
          </mxGeometry>
        </mxCell>
        <mxCell id="sLW77bm_CNe7X0AWjwWJ-5" value="cspsaas-api服务" style="rounded=1;whiteSpace=wrap;html=1;fillColor=#fff2cc;strokeColor=#d6b656;fontFamily=Comic Sans MS;sketch=1;" vertex="1" parent="1">
          <mxGeometry x="820" y="191" width="120" height="60" as="geometry" />
        </mxCell>
        <mxCell id="sLW77bm_CNe7X0AWjwWJ-6" value="Nginx" style="text;strokeColor=none;fillColor=none;html=1;fontSize=24;fontStyle=1;verticalAlign=middle;align=center;fontFamily=Comic Sans MS;" vertex="1" parent="1">
          <mxGeometry x="727" y="130" width="100" height="40" as="geometry" />
        </mxCell>
        <mxCell id="sLW77bm_CNe7X0AWjwWJ-21" style="edgeStyle=orthogonalEdgeStyle;rounded=0;orthogonalLoop=1;jettySize=auto;html=1;exitX=0.25;exitY=0;exitDx=0;exitDy=0;entryX=0.5;entryY=1;entryDx=0;entryDy=0;fontFamily=Comic Sans MS;sketch=1;" edge="1" parent="1" source="sLW77bm_CNe7X0AWjwWJ-7" target="sLW77bm_CNe7X0AWjwWJ-4">
          <mxGeometry relative="1" as="geometry" />
        </mxCell>
        <mxCell id="sLW77bm_CNe7X0AWjwWJ-22" value="验证cookie" style="edgeLabel;html=1;align=center;verticalAlign=middle;resizable=0;points=[];fontFamily=Comic Sans MS;" vertex="1" connectable="0" parent="sLW77bm_CNe7X0AWjwWJ-21">
          <mxGeometry x="-0.269" y="2" relative="1" as="geometry">
            <mxPoint as="offset" />
          </mxGeometry>
        </mxCell>
        <mxCell id="sLW77bm_CNe7X0AWjwWJ-7" value="Cookie域" style="rounded=1;whiteSpace=wrap;html=1;fillColor=#d5e8d4;strokeColor=#82b366;fontFamily=Comic Sans MS;sketch=1;" vertex="1" parent="1">
          <mxGeometry x="650" y="300" width="280" height="30" as="geometry" />
        </mxCell>
        <mxCell id="sLW77bm_CNe7X0AWjwWJ-9" style="edgeStyle=orthogonalEdgeStyle;rounded=0;orthogonalLoop=1;jettySize=auto;html=1;exitX=1;exitY=0.5;exitDx=0;exitDy=0;entryX=0.75;entryY=0;entryDx=0;entryDy=0;fontFamily=Comic Sans MS;sketch=1;" edge="1" parent="1" source="sLW77bm_CNe7X0AWjwWJ-8" target="sLW77bm_CNe7X0AWjwWJ-3">
          <mxGeometry relative="1" as="geometry" />
        </mxCell>
        <mxCell id="sLW77bm_CNe7X0AWjwWJ-14" value="" style="edgeStyle=orthogonalEdgeStyle;rounded=0;orthogonalLoop=1;jettySize=auto;html=1;fontFamily=Comic Sans MS;sketch=1;" edge="1" parent="1" source="sLW77bm_CNe7X0AWjwWJ-8" target="sLW77bm_CNe7X0AWjwWJ-13">
          <mxGeometry relative="1" as="geometry" />
        </mxCell>
        <mxCell id="sLW77bm_CNe7X0AWjwWJ-27" value="跳转报告页面" style="edgeLabel;html=1;align=center;verticalAlign=middle;resizable=0;points=[];fontFamily=Comic Sans MS;" vertex="1" connectable="0" parent="sLW77bm_CNe7X0AWjwWJ-14">
          <mxGeometry x="-0.0968" relative="1" as="geometry">
            <mxPoint as="offset" />
          </mxGeometry>
        </mxCell>
        <mxCell id="sLW77bm_CNe7X0AWjwWJ-8" value="通过cdp-saas服务实现coverity登录" style="rounded=1;whiteSpace=wrap;html=1;strokeWidth=2;fillWeight=4;hachureGap=8;hachureAngle=45;fillColor=#f8cecc;sketch=1;strokeColor=#b85450;fontFamily=Comic Sans MS;" vertex="1" parent="1">
          <mxGeometry x="485" y="40" width="120" height="60" as="geometry" />
        </mxCell>
        <mxCell id="sLW77bm_CNe7X0AWjwWJ-12" value="" style="shape=singleArrow;direction=south;whiteSpace=wrap;html=1;fillColor=#f5f5f5;strokeColor=#666666;fontColor=#333333;fontFamily=Comic Sans MS;sketch=1;" vertex="1" parent="1">
          <mxGeometry x="870" y="110" width="10" height="80" as="geometry" />
        </mxCell>
        <mxCell id="sLW77bm_CNe7X0AWjwWJ-23" style="edgeStyle=orthogonalEdgeStyle;rounded=0;orthogonalLoop=1;jettySize=auto;html=1;exitX=1;exitY=0.5;exitDx=0;exitDy=0;entryX=0.5;entryY=1;entryDx=0;entryDy=0;fontFamily=Comic Sans MS;sketch=1;" edge="1" parent="1" source="sLW77bm_CNe7X0AWjwWJ-13" target="sLW77bm_CNe7X0AWjwWJ-3">
          <mxGeometry relative="1" as="geometry" />
        </mxCell>
        <mxCell id="sLW77bm_CNe7X0AWjwWJ-24" value="nginx代理访问coverity" style="edgeLabel;html=1;align=center;verticalAlign=middle;resizable=0;points=[];fontFamily=Comic Sans MS;" vertex="1" connectable="0" parent="sLW77bm_CNe7X0AWjwWJ-23">
          <mxGeometry x="-0.2513" relative="1" as="geometry">
            <mxPoint as="offset" />
          </mxGeometry>
        </mxCell>
        <mxCell id="sLW77bm_CNe7X0AWjwWJ-13" value="登陆成功后返回重定向的报告页面" style="whiteSpace=wrap;html=1;fillColor=#dae8fc;strokeColor=#6c8ebf;rounded=1;strokeWidth=2;fillWeight=4;hachureGap=8;hachureAngle=45;sketch=1;fontFamily=Comic Sans MS;" vertex="1" parent="1">
          <mxGeometry x="485" y="420" width="120" height="60" as="geometry" />
        </mxCell>
        <mxCell id="sLW77bm_CNe7X0AWjwWJ-25" value="代理cookie" style="shape=doubleArrow;direction=south;whiteSpace=wrap;html=1;fillColor=#ffe6cc;strokeColor=#d79b00;fontFamily=Comic Sans MS;sketch=1;" vertex="1" parent="1">
          <mxGeometry x="781.5" y="330" width="18.5" height="80" as="geometry" />
        </mxCell>
        <mxCell id="sLW77bm_CNe7X0AWjwWJ-29" style="edgeStyle=orthogonalEdgeStyle;rounded=0;orthogonalLoop=1;jettySize=auto;html=1;entryX=0;entryY=0.5;entryDx=0;entryDy=0;fontFamily=Comic Sans MS;sketch=1;" edge="1" parent="1" source="sLW77bm_CNe7X0AWjwWJ-28" target="sLW77bm_CNe7X0AWjwWJ-8">
          <mxGeometry relative="1" as="geometry" />
        </mxCell>
        <mxCell id="sLW77bm_CNe7X0AWjwWJ-28" value="开始" style="ellipse;shape=doubleEllipse;whiteSpace=wrap;html=1;fillColor=#ffe6cc;strokeColor=#d79b00;fontFamily=Comic Sans MS;sketch=1;" vertex="1" parent="1">
          <mxGeometry x="314" y="40" width="100" height="60" as="geometry" />
        </mxCell>
        <mxCell id="sLW77bm_CNe7X0AWjwWJ-30" value="&lt;div style=&quot;&quot;&gt;&lt;span style=&quot;background-color: initial;&quot;&gt;1、&lt;/span&gt;&lt;span style=&quot;background-color: initial;&quot;&gt;cspsaas-api服务提供&lt;/span&gt;&lt;span style=&quot;background-color: initial;&quot;&gt;jumpToCoverity接口实现自动登录并且重定向报告页面&lt;/span&gt;&lt;/div&gt;&lt;div style=&quot;&quot;&gt;&lt;span style=&quot;background-color: initial;&quot;&gt;2、所有报告请求公用同一个cookie&lt;/span&gt;&lt;/div&gt;&lt;div style=&quot;&quot;&gt;&lt;span style=&quot;background-color: initial;&quot;&gt;3、系统默认cookie的缓存为1小时&lt;/span&gt;&lt;/div&gt;&lt;div style=&quot;&quot;&gt;&lt;span style=&quot;background-color: initial;&quot;&gt;4、每次请求会校验当前系统缓存的cookie是否过期，然后校验coverity会话是否过期&lt;/span&gt;&lt;/div&gt;&lt;div style=&quot;&quot;&gt;&lt;span style=&quot;background-color: initial;&quot;&gt;5、只要有一个过期那么就会重新登录获取cookie&lt;/span&gt;&lt;/div&gt;&lt;div style=&quot;&quot;&gt;&lt;span style=&quot;background-color: initial;&quot;&gt;6、只有当cookie发生变化（再次自动登录了coverity）才会更新cookie以及过期时间&lt;/span&gt;&lt;/div&gt;" style="text;html=1;strokeColor=#666666;fillColor=#f5f5f5;align=left;verticalAlign=top;whiteSpace=wrap;rounded=1;fontColor=#333333;fontFamily=Comic Sans MS;sketch=1;glass=0;" vertex="1" parent="1">
          <mxGeometry x="1000" y="130" width="170" height="235" as="geometry" />
        </mxCell>
        <mxCell id="sLW77bm_CNe7X0AWjwWJ-31" value="" style="shape=singleArrow;whiteSpace=wrap;html=1;arrowWidth=0.34826660156248296;arrowSize=0.2655165678879257;fillColor=#dae8fc;strokeColor=#6c8ebf;fontFamily=Comic Sans MS;sketch=1;" vertex="1" parent="1">
          <mxGeometry x="940" y="211" width="60" height="20" as="geometry" />
        </mxCell>
        <mxCell id="sLW77bm_CNe7X0AWjwWJ-32" value="coverity报告免登陆实现流程" style="text;strokeColor=none;fillColor=none;html=1;fontSize=24;fontStyle=1;verticalAlign=middle;align=center;fontFamily=Comic Sans MS;" vertex="1" parent="1">
          <mxGeometry x="700" y="-30" width="100" height="40" as="geometry" />
        </mxCell>
      </root>
    </mxGraphModel>
  </diagram>
</mxfile>
